<?xml version="1.0" encoding="iso-8859-1"?>
<!-- Generator: Adobe Illustrator 19.0.0, SVG Export Plug-In . SVG Version: 6.00 Build 0)  -->
<svg xmlns="http://www.w3.org/2000/svg" xmlns:xlink="http://www.w3.org/1999/xlink" version="1.1" id="Layer_1" x="0px" y="0px" viewBox="0 0 443.08 443.08" style="enable-background:new 0 0 443.08 443.08;" xml:space="preserve" width="512" height="512">
<g>
	<path style="fill:#808080;" d="M132.585,7.15l20.57,13.13c-5.01,3.25-9.79,6.84-14.29,10.76c-22.32,19.42-37.86,46.65-42.22,77.87   l-10.26,73.36l-21.74-12.53c-27.9-16.09-37.11-51.98-20.4-79.51l44.19-72.81C97.655,2.21,117.595-2.42,132.585,7.15z"/>
	<path style="fill:#E6E6E6;" d="M398.835,90.23c16.71,27.53,7.5,63.42-20.4,79.51l-21.74,12.53l-1.39,0.19l-10.28-73.55   c-5.18-37.08-26.12-68.52-55.47-87.95l0.37-0.67l20.58-13.14c14.99-9.57,34.92-4.94,44.15,10.27L398.835,90.23z"/>
	<path style="fill:#B3B3B3;" d="M338.705,349.18c-27.86,18.3-32.4,41.021-64.16,45.071l-26.52,14.559c0.91-3.01-55.29-8.01-54.38-5   l-16.11-5.01c-13.94-1.78-33.54-10.47-46.99-14.99c-17.21-5.78-11.95-24.36-27.58-34.63h-0.01c5.92-9.88,10.65-22.06,14.39-34.53   c2.07-6.9,3.83-13.88,5.33-20.62c10.91,6.32,23.4,10.29,36.83,11.11c1.75,0.12,3.52,0.17,5.3,0.17h15.94   c22.14,0,40.09-17.95,40.09-40.09c0,22.14,17.95,40.09,40.09,40.09h15.94c15.44,0,29.79-4.13,42.12-11.28   c1.5,6.74,3.27,13.72,5.34,20.62C328.065,327.12,332.785,339.31,338.705,349.18z"/>
	<path style="fill:#D8A664;" d="M252.185,419.97c-2.5,6.56-7.99,11.87-15.1,13.85c-0.27,0.08-0.64,0.16-1.08,0.24   c-5.95,1.16-11.31,4.34-15.17,9.02c-3.85-4.68-9.22-7.86-15.16-9.02c-0.45-0.08-0.82-0.16-1.09-0.24   c-7.09-1.98-12.58-7.28-15.09-13.84c-2.06-5.37-2.12-11.59,0.58-17.5l2.61-5.7c1.22-2.66,1.81-5.5,1.81-8.3   c0-1.96-0.29-3.91-0.85-5.78c-0.91-3.01-2.53-5.82-4.82-8.17l11.57-11.68c2.8,2.42,6.44,3.88,10.42,3.88   c3.8,0,7.28-1.33,10.02-3.54c2.74,2.21,6.22,3.54,10.02,3.54c3.98,0,7.63-1.46,10.42-3.88l11.57,11.68   c-2.29,2.35-3.91,5.16-4.82,8.17c-0.56,1.87-0.85,3.82-0.85,5.78c0,2.81,0.59,5.64,1.81,8.3l2.61,5.7   C254.295,408.38,254.235,414.59,252.185,419.97z"/>
	<path style="fill:#EAB96C;" d="M220.839,429.729c-3.978-2.672-8.482-4.552-13.247-5.483c0,0-0.285-0.052-0.337-0.063   c-3.821-1.074-6.967-3.979-8.419-7.776c-0.861-2.245-1.499-5.755,0.336-9.772l2.606-5.69c1.778-3.877,2.718-8.188,2.718-12.464   c0-2.925-0.428-5.834-1.271-8.649c-0.42-1.39-0.941-2.747-1.556-4.057l0.517-0.522c2.75,0.971,5.667,1.479,8.629,1.479   c3.452,0,6.862-0.698,10.02-2.019c3.157,1.321,6.568,2.019,10.02,2.019c2.965,0,5.881-0.507,8.631-1.477l0.514,0.519   c-0.612,1.305-1.13,2.653-1.547,4.034c-0.85,2.839-1.278,5.749-1.278,8.674c0,4.337,0.915,8.532,2.72,12.468l2.607,5.695   c1.831,4,1.194,7.519,0.338,9.767c-1.448,3.799-4.6,6.706-8.433,7.775c-0.059,0.012-0.316,0.06-0.316,0.06   C229.328,425.174,224.821,427.055,220.839,429.729z"/>
	<path style="fill:#F95428;" d="M194.495,388.48c0,2.8-0.59,5.64-1.81,8.3l-2.61,5.7c-2.7,5.91-2.64,12.13-0.58,17.5   c-18.11-2.67-35.94-7.66-53.04-14.98c-11.54-4.94-22.76-10.93-33.49-17.98h-0.01v-37.84h0.01c11.6,7.63,23.77,14.02,36.31,19.16   c17.55,7.21,35.84,12,54.36,14.36h0.01C194.205,384.57,194.495,386.52,194.495,388.48z"/>
	<path style="fill:#F95428;" d="M338.715,349.18v37.84h-0.01c-26.65,17.5-56.2,28.49-86.52,32.95c2.05-5.38,2.11-11.59-0.59-17.49   l-2.61-5.7c-1.22-2.66-1.81-5.49-1.81-8.3c0-1.96,0.29-3.91,0.85-5.78h0.01c31.76-4.05,62.81-15.22,90.67-33.52H338.715z"/>
	<path style="fill:#E54728;" d="M139.275,368.34l-2.82,36.66c-11.54-4.94-22.76-10.93-33.49-17.98h-0.01v-37.84h0.01   C114.565,356.81,126.735,363.2,139.275,368.34z"/>
	<path style="fill:#999999;" d="M318.985,294.03c-12.33,7.15-26.68-50.22-42.12-50.22l-15.94-4c-22.14,0-40.09,9.14-40.09-13   c0,22.14,2.28,2-19.86,2l-16.43,19c-1.78,0-48.96-48.33-37,2c3.111,13.09-13.96,50.54-24.87,44.22   c-4.2,18.91-10.52,39.81-19.72,55.15h0.01c15.63,10.27,32.27,18.29,49.48,24.07l4.592-44.302c2.556,0.233,5.145,0.362,7.768,0.362   h15.94c22.14,0,40.09-17.95,40.09-40.09c0,22.14,17.95,40.09,40.09,40.09h15.94c15.44,0,29.79-4.13,42.12-11.28   c1.83-1.06,3.61-2.19,5.34-3.38C322.255,307.75,320.485,300.77,318.985,294.03z"/>
	<path style="fill:#CCCCCC;" d="M318.985,294.03c-12.33,7.15-26.68,11.28-42.12,11.28h-15.94c-22.14,0-40.09-17.95-40.09-40.09   c0,22.14-17.95,40.09-40.09,40.09h-15.94c-15.44,0-29.8-4.13-42.13-11.28c-28.43-16.52-46.04-49.15-41.11-84.42l3.82-27.34   l10.26-73.36c4.36-31.22,19.9-58.45,42.22-77.87c4.5-3.92,9.28-7.51,14.29-10.76C172.025,7.4,195.655,0,220.835,0   c25.62,0,49.64,7.66,69.72,20.96c29.35,19.43,50.29,50.87,55.47,87.95l10.28,73.55l3.8,27.15   C365.035,244.88,347.415,277.52,318.985,294.03z"/>
	<path style="fill:#B3B3B3;" d="M142.008,294.03c-28.43-16.52-46.04-49.15-41.11-84.42l3.82-27.34l10.26-73.36   c4.36-31.22,19.9-58.45,42.22-77.87c4.5-3.92,9.28-7.51,14.29-10.76C188.798,9.06,208.961,2.003,230.516,0.37   C227.318,0.126,224.09,0,220.835,0c-25.18,0-48.81,7.4-68.68,20.28c-5.01,3.25-9.79,6.84-14.29,10.76   c-22.32,19.42-37.86,46.65-42.22,77.87l-10.26,73.36l-3.82,27.34c-4.93,35.27,12.68,67.9,41.11,84.42   c12.33,7.15,26.69,11.28,42.13,11.28h15.94c0.417,0,0.828-0.023,1.241-0.036C167.365,304.909,153.763,300.846,142.008,294.03z"/>
	<path style="fill:#4D4D4D;" d="M235.845,200.197c17.03,0,27.68,18.43,19.16,33.18l-14.31,24.79c-8.83,15.29-30.89,15.29-39.72,0   l-14.31-24.79c-8.52-14.75,2.13-33.18,19.15-33.18H235.845z"/>
	<path style="fill:#F2F2F2;" d="M194.585,165.82l-13.35,12.11c-2.86,2.59-6.02,4.62-9.37,6.1c-10.69,4.73-23.18,3.82-33.08-2.53   c-2.55-1.64-4.92-3.63-7.05-5.98l-12.11-13.35c6.16-5.59,13.28-9.46,20.76-11.64c4.86-1.41,9.87-2.12,14.88-2.12   c6.31,0,12.61,1.11,18.58,3.34C181.545,154.61,188.685,159.31,194.585,165.82z"/>
	<path style="fill:#E6E6E6;" d="M194.585,165.82l-74.96-3.65c6.16-5.59,13.28-9.46,20.76-11.64c4.86-1.41,9.87-2.12,14.88-2.12   c6.31,0,12.61,1.11,18.58,3.34C181.545,154.61,188.685,159.31,194.585,165.82z"/>
	<path style="fill:#333333;" d="M179.545,166.893c0,6.81-2.96,12.94-7.68,17.14c-10.69,4.73-23.18,3.82-33.08-2.53   c-3.27-3.97-5.24-9.06-5.24-14.61c0-6.4,2.62-12.19,6.84-16.36c4.86-1.41,9.87-2.12,14.88-2.12c6.31,0,12.61,1.11,18.58,3.34   C177.395,155.793,179.545,161.093,179.545,166.893z"/>
	<circle style="fill:#4D4D4D;" cx="166.795" cy="161.143" r="6.25"/>
	<circle style="fill:#808080;" cx="238.414" cy="214.55" r="6.25"/>
	<path style="fill:#F2F2F2;" d="M247.085,165.823l13.35,12.11c2.86,2.59,6.02,4.62,9.37,6.1c10.69,4.73,23.18,3.82,33.08-2.53   c2.55-1.64,4.92-3.63,7.05-5.98l12.11-13.35c-6.16-5.59-13.28-9.46-20.76-11.64c-4.86-1.41-9.87-2.12-14.88-2.12   c-6.31,0-12.61,1.11-18.58,3.34C260.125,154.613,252.985,159.313,247.085,165.823z"/>
	<path style="fill:#E6E6E6;" d="M247.085,165.82l74.96-3.65c-6.16-5.59-13.28-9.46-20.76-11.64c-4.86-1.41-9.87-2.12-14.88-2.12   c-6.31,0-12.61,1.11-18.58,3.34C260.125,154.61,252.985,159.31,247.085,165.82z"/>
	<path style="fill:#333333;" d="M262.125,166.893c0,6.81,2.96,12.94,7.68,17.14c10.69,4.73,23.18,3.82,33.08-2.53   c3.27-3.97,5.24-9.06,5.24-14.61c0-6.4-2.62-12.19-6.84-16.36c-4.86-1.41-9.87-2.12-14.88-2.12c-6.31,0-12.61,1.11-18.58,3.34   C264.275,155.793,262.125,161.093,262.125,166.893z"/>
	<circle style="fill:#4D4D4D;" cx="290.045" cy="161.143" r="6.25"/>
	<circle style="fill:#999999;" cx="135.955" cy="232.04" r="7.5"/>
	<circle style="fill:#999999;" cx="135.955" cy="263.92" r="7.5"/>
	<circle style="fill:#999999;" cx="159.675" cy="247.98" r="7.5"/>
	<circle style="fill:#999999;" cx="281.995" cy="247.98" r="7.5"/>
	<circle style="fill:#999999;" cx="305.715" cy="263.92" r="7.5"/>
	<circle style="fill:#999999;" cx="305.715" cy="232.04" r="7.5"/>
</g>















</svg>
